<?xml version="1.0" encoding="UTF-8" standalone="no"?>
<!-- Created with Inkscape (http://www.inkscape.org/) -->

<svg
   width="25mm"
   height="25mm"
   viewBox="0 0 25 25"
   version="1.1"
   id="svg1"
   inkscape:version="1.4.3 (0d15f75042, 2025-12-25)"
   sodipodi:docname="favicon.svg"
   xmlns:inkscape="http://www.inkscape.org/namespaces/inkscape"
   xmlns:sodipodi="http://sodipodi.sourceforge.net/DTD/sodipodi-0.dtd"
   xmlns="http://www.w3.org/2000/svg"
   xmlns:svg="http://www.w3.org/2000/svg">
  <sodipodi:namedview
     id="namedview1"
     pagecolor="#ffffff"
     bordercolor="#000000"
     borderopacity="0.25"
     inkscape:showpageshadow="2"
     inkscape:pageopacity="0.0"
     inkscape:pagecheckerboard="0"
     inkscape:deskcolor="#d1d1d1"
     inkscape:document-units="mm"
     inkscape:zoom="4.3527915"
     inkscape:cx="-4.0204085"
     inkscape:cy="59.387177"
     inkscape:window-width="1920"
     inkscape:window-height="1008"
     inkscape:window-x="0"
     inkscape:window-y="0"
     inkscape:window-maximized="1"
     inkscape:current-layer="layer1" />
  <defs
     id="defs1" />
  <g
     inkscape:label="Layer 1"
     inkscape:groupmode="layer"
     id="layer1"
     transform="translate(-106.62709,-73.554168)">
    <g
       id="g1"
       transform="translate(1.4815782,0.023931)">
      <path
         id="path3856"
         d="m 128.58148,83.600066 c 0.20395,-1.941656 0.011,-5.841504 -0.37482,-7.952658 -0.0896,-0.487826 -0.40653,-1.092785 -1.24851,-1.289844 -2.15387,-0.501606 -5.00365,-0.77997 -8.04085,-0.803396 -0.26458,2.174544 -0.48645,5.188313 -0.48645,8.592068 l 0.003,1.302246 10e-4,0.07166 0.32246,0.03032 c 0.15434,0.01516 0.21497,0.09922 0.23702,0.254937 0.0207,0.154341 0.0413,0.34451 0.0413,0.34451 0,0 5.78776,-0.03307 9.54568,-0.549837"
         style="fill:#211e1e;fill-opacity:1;fill-rule:nonzero;stroke:none;stroke-width:0.352778" />
      <path
         id="path3858"
         d="m 116.90399,86.327204 -0.32384,-0.03032 c -0.15434,-0.01378 -0.21911,-0.09646 -0.23565,-0.253559 -0.0165,-0.146072 -0.0413,-0.34451 -0.0413,-0.34451 v -0.0028 c -2.57831,0 -5.48459,0.01378 -9.2425,0.531923 0.50712,2.902149 3.82405,9.467123 9.16946,12.278321 0.26459,-2.174547 0.68076,-7.475858 0.68076,-10.879612 l -0.006,-1.22921 -0.001,-0.07166 v 0.0014"
         style="fill:#211e1e;fill-opacity:1;fill-rule:nonzero;stroke:none;stroke-width:0.352778" />
      <path
         id="path3860"
         d="m 119.03443,85.696062 c 2.57693,0 5.5094,0.01378 9.26731,0.531923 -0.50712,2.902148 -3.82406,9.467124 -9.16947,12.278321 -0.2632,-2.174546 -0.70417,-7.475858 -0.70417,-10.879613 l 0.0193,-1.251258 -0.003,-0.04961 0.31006,-0.02894 c 0.15434,-0.01378 0.21773,-0.09784 0.23702,-0.253559 0.0165,-0.143316 0.0413,-0.34451 0.0413,-0.34451 l 10e-4,-0.0028"
         style="fill:#211e1e;fill-opacity:1;fill-rule:nonzero;stroke:none;stroke-width:0.352778" />
      <path
         id="path3862"
         d="m 111.96647,79.818729 c -0.0138,0.02618 -0.004,0.07166 0.01,0.09371 0.0234,-0.0028 0.0772,-0.01791 0.10611,-0.03721 0.0345,-0.02067 0.0441,-0.03583 0.0799,-0.06201 -0.0344,-0.0028 -0.19016,-0.0041 -0.19568,0.0055"
         style="fill:#611c63;fill-opacity:1;fill-rule:nonzero;stroke:none;stroke-width:0.352778" />
      <path
         id="path3864"
         d="m 113.15986,81.233974 c 0,0.09095 -0.13781,0.143316 -0.16537,0.184657 -0.0138,0.02067 -0.0262,0.03307 -0.0317,0.05512 -0.0165,-0.05926 0.0152,-0.107487 0.0152,-0.148828 0,-0.04823 -0.0331,-0.07028 -0.0813,-0.07028 -0.073,0 -0.26734,0.175011 -0.1502,0.454753 -0.007,-0.09922 0.0303,-0.163987 0.0469,-0.18328 0.0165,-0.01791 0.0317,-0.05512 0.0276,-0.08406 0.0386,0.0689 0.0455,0.100597 0.0455,0.155719 0,0.119889 -0.0868,0.144693 -0.0455,0.234266 0.007,0.02343 0.0152,0.0441 0.0276,0.07579 0,-0.04272 0.008,-0.07993 0.0152,-0.108865 0.007,-0.02894 0.0538,-0.08406 0.0593,-0.106109 0.006,-0.02343 0.007,-0.04547 0.001,-0.07304 0.0386,0.04823 0.0648,0.08957 0.0648,0.168121 0,0.08957 -0.0413,0.141938 -0.0524,0.16812 -0.011,0.02618 -0.0234,0.05099 -0.0289,0.09508 -0.0248,0.198438 -0.12265,0.292144 -0.25218,0.292144 -0.0813,0 -0.14194,-0.0124 -0.19293,-0.04547 0,0.254937 -0.29076,0.235644 -0.29076,0.402387 0,0.04685 0.0303,0.101975 0.062,0.13367 0.0317,0.03032 0.14883,0.07441 0.19292,0.130913 -0.0634,0.0041 -0.13229,0.02618 -0.16812,0.0689 0.10473,0.05237 0.10198,0.111621 0.11576,0.190169 -0.10336,-0.05099 -0.15021,-0.02067 -0.17639,0.0069 -0.0317,0.03307 -0.0165,0.07717 -0.0524,0.12678 -0.0165,-0.03996 -0.0441,-0.07304 -0.0882,-0.07304 -0.0441,0 -0.13505,0.07855 -0.13643,0.10473 -0.004,0.07028 -0.0372,0.09784 -0.0992,0.106109 -0.0482,0.04961 -0.0358,0.07579 -0.0345,0.122646 -0.0413,-0.03858 -0.0482,-0.06339 -0.0317,-0.13367 -0.0482,-0.01929 -0.0413,-0.05926 -0.0276,-0.09371 l -0.0179,-0.0124 c -0.0262,0.02205 -0.051,0.05512 -0.11438,0.0248 -0.0248,0.01102 -0.0551,0.04823 -0.0606,0.09233 -0.0165,-0.106109 0.0165,-0.141938 0.0345,-0.158474 -0.011,-0.02343 0.004,-0.07304 0.0469,-0.09233 0,-0.0096 -0.004,-0.01516 -0.006,-0.02067 -0.0345,0 -0.0648,-0.01378 -0.0772,-0.03721 -0.0331,-0.0055 -0.0799,0.03445 -0.0882,0.05925 0,-0.05925 0.0468,-0.119889 0.0813,-0.133669 0.04,-0.07855 0.11575,-0.09371 0.16123,-0.04685 0.0248,0.0248 0.0854,0.05236 0.14745,0.05236 0.0606,0 0.11713,-0.05099 0.13091,-0.07166 0.0152,-0.01929 0.0165,-0.02343 0.0234,-0.03996 0.0138,-0.03032 0.04,-0.06615 -0.0234,-0.146072 -0.0496,-0.06201 -0.17363,-0.183279 -0.17639,-0.270095 -0.003,-0.141938 0.0634,-0.225999 0.12678,-0.282498 -0.0221,0 -0.0165,0 -0.051,0 -0.091,0 -0.0978,-0.0565 -0.19154,-0.0565 -0.0675,0 -0.10749,0.06752 -0.10749,0.12678 0,0.05925 0.011,0.07166 0.0303,0.110243 0.0289,0.05236 0.0386,0.0813 0.0317,0.133669 -0.0538,-0.04823 -0.12954,-0.07303 -0.19155,-0.01929 -0.0234,0.0689 -0.0372,0.09508 -0.0813,0.128158 -0.004,-0.0565 -0.11989,-0.14745 -0.22462,-0.05099 -0.01,0.02481 -0.0193,0.07855 -0.0923,0.07855 -0.0427,0 -0.0386,-0.0096 -0.0565,-0.01791 -0.0289,0.02618 -0.0551,0.05512 -0.0634,0.09233 -0.0152,-0.0565 0.006,-0.104731 0.0248,-0.129536 -0.007,-0.02343 -0.006,-0.08406 0.0262,-0.100596 -0.01,-0.01103 -0.006,-0.0041 -0.0152,-0.01929 -0.0441,0.03858 -0.11575,0.0441 -0.14745,0 -0.0262,0.0041 -0.051,0.02343 -0.0785,0.07993 -0.007,-0.05788 0.0317,-0.122646 0.0593,-0.141938 0,-0.04272 0.0593,-0.08131 0.12127,-0.06752 0.004,-0.0083 -0.001,-0.0124 0.006,-0.02205 0.007,-0.0083 -0.003,-0.0041 -0.003,-0.0041 -0.0165,-0.01103 -0.0758,-0.0124 -0.0717,-0.08544 -0.0358,-0.0124 -0.0689,0.0041 -0.0937,0.0248 0.0248,-0.06201 0.0772,-0.0813 0.11713,-0.08544 0.0138,-0.02756 0.0593,-0.03032 0.0813,-0.03032 0.0427,0 0.0717,0.01929 0.0785,0.04685 0.0427,0.07579 0.14056,0.101975 0.23702,0.101975 0.0469,0 0.0882,-0.03721 0.0882,-0.09233 0,-0.05512 -0.0937,-0.216351 -0.0937,-0.289387 0,-0.07304 0.13229,-0.214974 0.22049,-0.214974 0.27009,0 0.33211,0.111621 0.39274,0.111621 0.0854,0 0.0965,-0.01653 0.10886,-0.03032 -0.12678,-0.155719 -0.20808,-0.152962 -0.32797,-0.235645 -0.062,-0.04272 -0.0923,-0.112999 -0.10197,-0.179145 -0.0744,0.01791 -0.14883,0.118512 -0.18328,0.180523 -0.0165,-0.03032 -0.0427,-0.04961 -0.0744,-0.04961 -0.0593,0 -0.10197,0.07855 -0.13091,0.144694 -0.0165,-0.07717 -0.062,-0.14745 -0.15021,-0.14745 -0.0482,0 -0.10473,0.02067 -0.11851,0.05374 -0.0138,0.03032 -0.0593,0.07855 -0.13229,0.05926 -0.0262,0.01929 -0.0496,0.02618 -0.0675,0.106109 -0.0248,-0.100597 0,-0.118511 0.0138,-0.143316 -0.0138,-0.06615 0.0138,-0.08957 0.0262,-0.106109 l -0.007,-0.01791 c -0.04,0.01378 -0.0978,0.0083 -0.11438,-0.0248 -0.0441,-0.0028 -0.0565,0.0028 -0.0951,0.05926 0.008,-0.06339 0.0441,-0.115755 0.0841,-0.130914 0.0152,-0.03721 0.0675,-0.05374 0.10886,-0.05374 0.003,-0.0096 0.007,-0.0096 0.008,-0.01929 -0.0262,-0.01378 -0.0496,-0.04823 -0.0441,-0.08819 -0.0331,-0.03858 -0.0703,-0.01378 -0.0992,-0.0028 0.0524,-0.05512 0.11437,-0.07579 0.15709,-0.05236 0.091,-0.03032 0.12265,0.0124 0.13092,0.06339 0.011,0.05925 0.10197,0.06752 0.19568,0.06752 0.2067,0 0.53468,-0.192926 0.51125,-0.345888 -0.0482,-0.0124 -0.0537,-0.0096 -0.0923,-0.0096 -0.11024,0 -0.24805,0.137804 -0.35691,0.139182 0.0537,-0.06063 0.0207,-0.122646 0.051,-0.169499 -0.0606,-0.0014 -0.12127,0.03721 -0.23565,0.02618 0.0386,-0.02205 0.0648,-0.103352 0.0648,-0.130913 0,-0.02756 0,-0.08406 -0.12127,-0.08406 -0.0124,0.0028 -0.0455,0.01378 -0.0703,0.01378 -0.0289,0 -0.11024,-0.0069 -0.11024,-0.07166 -0.04,-0.0083 -0.0703,0.0014 -0.113,0.03445 0.008,-0.04548 0.0923,-0.100597 0.11713,-0.103353 0.0165,-0.03445 0.051,-0.04961 0.0675,-0.04823 0.004,-0.01791 0.003,-0.0014 0.004,-0.02205 -0.0413,-0.0055 -0.0951,-0.02067 -0.0937,-0.09095 -0.0289,-0.02618 -0.0482,-0.03307 -0.11438,-0.01516 0.0827,-0.06201 0.11162,-0.05236 0.1378,-0.04134 0.0606,-0.04548 0.11024,-0.02067 0.12678,-0.0014 0.007,-0.0096 0.0138,-0.01102 0.0165,-0.01791 -0.0138,-0.0441 -0.006,-0.08682 0.0138,-0.10611 -0.001,-0.04685 -0.0234,-0.06201 -0.0675,-0.07166 0.091,0.0028 0.12678,0.02343 0.1571,0.0565 0.0524,0.0069 0.0841,0.05236 0.0854,0.08544 0.001,0.08544 -0.0896,0.144694 0.0854,0.235645 0.0551,0.02756 0.13092,0.05512 0.20809,0.07855 0.0785,0.02205 0.17363,0.0565 0.21222,0.0565 -0.0303,-0.04685 -0.0179,-0.09371 -0.0661,-0.141938 0.0551,-0.0028 0.12402,0.01654 0.17501,0.02618 -0.011,-0.06752 0.006,-0.0689 -0.04,-0.110243 0.0386,0.0055 0.0937,0.0055 0.12402,0.0096 0.19844,0.02067 0.2012,-0.07717 0.23978,-0.20395 -0.0675,0.0041 -0.1819,0.02205 -0.29077,0.09371 0.011,-0.03721 -10e-4,-0.06752 -10e-4,-0.09922 0,-0.05926 0.0468,-0.07166 0.0703,-0.07166 0.011,0 0.04,-0.0041 0.062,-0.0041 0.0441,0 0.10473,-0.04961 0.0772,-0.146072 -0.0138,-0.04685 -0.0496,-0.07579 -0.0896,-0.06339 -0.0303,0.0083 -0.0372,0.0069 -0.0799,0.02343 -0.0344,0.0124 -0.0441,0.03858 -0.0482,0.07304 -0.007,-0.01516 -0.0179,-0.06063 -0.0234,-0.07166 -0.007,-0.0124 -0.0124,-0.02067 -0.0234,-0.05099 -0.004,-0.0096 -0.003,-0.0096 -0.008,-0.02205 -0.0207,-0.04823 0.0124,-0.08957 0.0537,-0.09784 0.0358,-0.0069 0.0923,-0.02067 0.12678,-0.03169 0.0689,-0.02067 0.0896,-0.04685 0.10473,-0.08406 0.0152,-0.03858 0.0248,-0.05237 0.0882,-0.05237 0.0193,0 0.0923,0.0014 0.1254,0.0014 0.0965,0 0.20395,-0.07855 0.1695,-0.16123 0.0661,0.01102 0.0937,0.118511 0.0772,0.16123 0.0303,0 0.13505,-0.02067 0.15986,-0.04134 -0.001,0.07304 -0.0579,0.162608 -0.0978,0.184657 0.051,0.0055 0.14193,-0.0014 0.16949,-0.02618 -0.0165,0.05512 -0.0758,0.173632 -0.113,0.190169 0.091,0.03032 0.14883,0.07855 0.1888,0.190169 -0.0675,-0.02756 -0.10749,0.0055 -0.16812,-0.0028 0.12264,0.143316 0.16812,0.361046 0.20395,0.416167 -0.0331,-0.01791 -0.0992,-0.05512 -0.14883,-0.07304 0.051,0.118512 -0.0248,0.235645 -0.0124,0.299035 -0.0386,-0.02205 -0.0896,-0.04961 -0.10473,-0.08131 -0.0207,0.04823 -0.0634,0.141938 -0.0468,0.263206 -0.0317,-0.03307 -0.0841,-0.05926 -0.10887,-0.07717 -0.0455,0.06615 -0.073,0.108865 -0.073,0.278363 0,0.231511 0.10748,0.451997 0.15434,0.540191 0.0717,0.135048 0.0896,0.249425 0.10197,0.2949 0.022,0.09095 0.0868,0.148829 0.17226,0.148829 0.0827,0 0.15296,-0.07579 0.15296,-0.166743 0,-0.168121 -0.20395,-0.27423 -0.20395,-0.56913 0,-0.192925 0.14883,-0.289388 0.15296,-0.413411 0.003,-0.108866 -0.0965,-0.04134 -0.17087,-0.08957 0.0951,-0.01929 0.15158,-0.124023 0.23702,-0.119889 0.0744,0.0041 0.0923,0.0441 0.0965,0.08268 0.006,0.05237 -0.0289,0.112999 -0.04,0.135048 0.0827,-0.07166 0.11989,-0.181901 0.11989,-0.237023 0,-0.08268 -0.11714,-0.175011 -0.0868,-0.333485 0.006,-0.02067 0.004,-0.01791 0.01,-0.03032 0.0344,0.177767 0.28801,0.224621 0.28801,0.401009 0,0.166743 -0.1447,0.135048 -0.22738,0.249425 0.0909,-0.03583 0.19293,-0.01791 0.19293,0.08131 z m -1.70326,-1.216807 c -0.022,0.08406 -0.022,0.192925 0.0965,0.192925 0.0909,0 0.24943,-0.07855 0.2825,-0.09371 l 0.0138,0.02894 c -0.0262,0.01102 -0.23427,0.177767 -0.40101,0.180523 -0.0937,0.0014 -0.1254,-0.05512 -0.1254,-0.110243 0,-0.08544 0.0662,-0.115755 0.13367,-0.198438 z m 0.45613,-1.486904 -5.23103,5.069803 c 3.73586,0.51263 7.00319,0.549837 9.57461,0.549837 h 0.0469 c 0,0 0.022,-0.173633 0.0413,-0.344509 0.0179,-0.157097 0.0813,-0.239779 0.23565,-0.253559 l 0.32384,-0.03169 0.001,-0.0055 -4.99263,-4.984364"
         style="fill:#211e1e;fill-opacity:1;fill-rule:nonzero;stroke:none;stroke-width:0.352778" />
      <path
         id="path3866"
         d="m 115.7106,76.111806 c 0,0.09508 -0.14607,0.151585 -0.17501,0.195682 -0.0152,0.02067 -0.0276,0.03445 -0.0331,0.05788 -0.0179,-0.06201 0.0152,-0.112999 0.0152,-0.158474 0,-0.04961 -0.0358,-0.07304 -0.0868,-0.07304 -0.0758,0 -0.28249,0.184657 -0.15847,0.482314 -0.008,-0.10611 0.0317,-0.175011 0.0496,-0.194304 0.0179,-0.02067 0.0344,-0.05926 0.0303,-0.08957 0.04,0.07304 0.0482,0.10611 0.0482,0.165365 0,0.12678 -0.0923,0.152962 -0.0496,0.248047 0.008,0.0248 0.0165,0.04685 0.0303,0.07993 0,-0.0441 0.008,-0.08406 0.0152,-0.114377 0.008,-0.03169 0.0565,-0.09095 0.0634,-0.114377 0.006,-0.02343 0.007,-0.04685 0.001,-0.07579 0.0413,0.05099 0.0689,0.09508 0.0689,0.177767 0,0.09508 -0.0441,0.150206 -0.0551,0.177767 -0.0124,0.02756 -0.0262,0.05374 -0.0317,0.100596 -0.0262,0.212218 -0.12954,0.310059 -0.26734,0.310059 -0.0854,0 -0.15021,-0.0124 -0.20533,-0.04823 0,0.271473 -0.30868,0.250803 -0.30868,0.427191 0,0.04961 0.0345,0.107488 0.0675,0.14056 0.0331,0.03307 0.15848,0.07993 0.20395,0.14056 -0.0661,0.0041 -0.13918,0.02756 -0.17914,0.07304 0.11162,0.05512 0.10886,0.117134 0.12264,0.201194 -0.10886,-0.05374 -0.15847,-0.02205 -0.18603,0.0069 -0.0331,0.03583 -0.0179,0.0813 -0.0551,0.136426 -0.0179,-0.04272 -0.0469,-0.07993 -0.0937,-0.07993 -0.0468,0 -0.14332,0.08544 -0.14469,0.112999 -0.004,0.07304 -0.0386,0.103353 -0.10611,0.111621 -0.0496,0.05237 -0.0386,0.07993 -0.0358,0.129536 -0.0441,-0.03996 -0.051,-0.06752 -0.0344,-0.141938 -0.0496,-0.02067 -0.0441,-0.06201 -0.0289,-0.09922 l -0.0193,-0.0124 c -0.0262,0.02343 -0.0537,0.05788 -0.11989,0.02618 -0.0262,0.01102 -0.0606,0.05099 -0.0648,0.09784 -0.0179,-0.111621 0.0179,-0.151584 0.0358,-0.16812 -0.011,-0.0248 0.006,-0.07717 0.051,-0.09784 0,-0.01102 -0.004,-0.01653 -0.006,-0.02205 -0.0372,0 -0.0689,-0.01516 -0.0827,-0.03858 -0.0358,-0.0069 -0.0841,0.03583 -0.0937,0.06201 0,-0.06339 0.0496,-0.126779 0.0868,-0.141938 0.0413,-0.08268 0.12126,-0.09922 0.17087,-0.04961 0.0262,0.02618 0.0896,0.05512 0.15572,0.05512 0.0648,0 0.12402,-0.05374 0.13918,-0.07441 0.0152,-0.02205 0.0179,-0.02618 0.0248,-0.0441 0.0138,-0.03169 0.0413,-0.07028 -0.0248,-0.15434 -0.0524,-0.06615 -0.18465,-0.194304 -0.18603,-0.286632 -0.004,-0.150206 0.0661,-0.238401 0.13367,-0.299034 -0.0234,0 -0.0179,0 -0.0537,0 -0.0965,0 -0.10473,-0.06063 -0.20257,-0.06063 -0.073,0 -0.11575,0.07304 -0.11575,0.135048 0,0.06201 0.011,0.07579 0.0331,0.115755 0.0303,0.0565 0.0413,0.08682 0.0331,0.143316 -0.0565,-0.05237 -0.1378,-0.07717 -0.20257,-0.02067 -0.0248,0.07304 -0.04,0.100597 -0.0868,0.135048 -0.004,-0.06063 -0.12678,-0.155718 -0.23703,-0.05374 -0.011,0.02618 -0.0207,0.08406 -0.0978,0.08406 -0.0455,0 -0.0413,-0.01102 -0.0606,-0.01929 -0.0317,0.02756 -0.0579,0.05788 -0.0675,0.09646 -0.0152,-0.05925 0.006,-0.110243 0.0262,-0.135047 -0.007,-0.02618 -0.006,-0.09095 0.0289,-0.108866 -0.011,-0.01102 -0.007,-0.0028 -0.0165,-0.01929 -0.0469,0.04134 -0.12264,0.04685 -0.15572,0 -0.0276,0.0055 -0.0551,0.0248 -0.0841,0.08406 -0.007,-0.06063 0.0345,-0.129535 0.062,-0.150206 0.001,-0.04547 0.0648,-0.08544 0.12954,-0.07166 0.006,-0.0083 -0.001,-0.01378 0.007,-0.02343 0.006,-0.0083 -0.003,-0.0041 -0.003,-0.0041 -0.0193,-0.01102 -0.0813,-0.0124 -0.0772,-0.09095 -0.0372,-0.01378 -0.073,0.0041 -0.0992,0.02756 0.0248,-0.06615 0.0813,-0.08819 0.12402,-0.09233 0.0152,-0.02894 0.062,-0.03169 0.0868,-0.03169 0.0455,0 0.0758,0.02205 0.0827,0.04961 0.0455,0.0813 0.14883,0.107487 0.2508,0.107487 0.051,0 0.0937,-0.03859 0.0937,-0.09646 0,-0.05926 -0.0992,-0.228754 -0.0992,-0.307302 0,-0.07855 0.14056,-0.228754 0.23289,-0.228754 0.28663,0 0.35278,0.119889 0.41617,0.119889 0.091,0 0.10335,-0.01791 0.11713,-0.03307 -0.13505,-0.165365 -0.22048,-0.162609 -0.35002,-0.250803 -0.0648,-0.0441 -0.0978,-0.118511 -0.10749,-0.188791 -0.0786,0.01929 -0.15709,0.125401 -0.1943,0.191547 -0.0179,-0.03169 -0.0441,-0.05237 -0.0786,-0.05237 -0.0634,0 -0.10886,0.08268 -0.1378,0.152962 -0.0179,-0.0813 -0.0661,-0.155719 -0.15986,-0.155719 -0.0524,0 -0.11024,0.02205 -0.1254,0.0565 -0.0152,0.03307 -0.0634,0.08268 -0.14056,0.06339 -0.0276,0.01929 -0.0524,0.02756 -0.0717,0.111621 -0.0262,-0.106109 0,-0.125401 0.0152,-0.151584 -0.0152,-0.07028 0.0138,-0.09508 0.0262,-0.113 l -0.007,-0.01791 c -0.0413,0.01378 -0.10336,0.0083 -0.12127,-0.02756 -0.0469,-0.0014 -0.0593,0.0041 -0.0992,0.06339 0.007,-0.06752 0.0455,-0.122646 0.0882,-0.139182 0.0165,-0.03996 0.0716,-0.0565 0.11437,-0.0565 0.004,-0.01102 0.008,-0.01102 0.01,-0.02067 -0.0289,-0.01516 -0.0524,-0.05099 -0.0469,-0.09371 -0.0344,-0.03996 -0.073,-0.01516 -0.1061,-0.0028 0.0565,-0.05926 0.12264,-0.07993 0.16674,-0.05512 0.0965,-0.03169 0.13091,0.01378 0.13918,0.06752 0.011,0.06201 0.10887,0.07028 0.20808,0.07028 0.21911,0 0.56776,-0.20395 0.54157,-0.36518 -0.051,-0.01378 -0.0565,-0.0124 -0.0978,-0.0124 -0.11713,0 -0.2632,0.14745 -0.37896,0.148828 0.0579,-0.06477 0.022,-0.130913 0.0537,-0.179144 -0.0634,-0.0014 -0.12678,0.03858 -0.24805,0.02756 0.0413,-0.0248 0.0689,-0.108865 0.0689,-0.139182 0,-0.03032 0,-0.08957 -0.13091,-0.08957 -0.0124,0.0041 -0.0469,0.01516 -0.073,0.01516 -0.0317,0 -0.11713,-0.0083 -0.11713,-0.07579 -0.0427,-0.0096 -0.0744,0.0014 -0.11989,0.03583 0.01,-0.04685 0.0978,-0.106108 0.12402,-0.110243 0.0179,-0.03583 0.0537,-0.05236 0.0717,-0.04961 0.004,-0.01929 0.003,-0.0014 0.004,-0.0248 -0.0441,-0.0055 -0.0992,-0.02205 -0.0992,-0.09508 -0.0303,-0.02894 -0.051,-0.03583 -0.12127,-0.01654 0.0882,-0.06477 0.11851,-0.05512 0.14745,-0.0441 0.0634,-0.04823 0.11575,-0.02205 0.13367,-0.0014 0.007,-0.0096 0.0138,-0.01102 0.0179,-0.01929 -0.0152,-0.04548 -0.007,-0.09095 0.0138,-0.111621 -0.001,-0.05099 -0.0248,-0.06615 -0.0717,-0.07579 0.0965,0.0014 0.13505,0.02343 0.16675,0.05926 0.0551,0.0069 0.0896,0.0565 0.091,0.09095 0.001,0.09095 -0.0951,0.152963 0.0909,0.249426 0.0579,0.02894 0.13918,0.05788 0.22048,0.08268 0.0827,0.02343 0.18328,0.06063 0.22462,0.06063 -0.0317,-0.04961 -0.0193,-0.09922 -0.0703,-0.150207 0.0593,-0.0041 0.13092,0.01654 0.18466,0.02756 -0.011,-0.07166 0.007,-0.07166 -0.0413,-0.117134 0.0413,0.0055 0.0992,0.0069 0.13091,0.0096 0.21084,0.02343 0.2136,-0.0813 0.25494,-0.214974 -0.0717,0.0041 -0.19292,0.02205 -0.3073,0.09922 0.011,-0.03996 -0.001,-0.07166 -0.001,-0.104731 0,-0.06339 0.0496,-0.07579 0.073,-0.07579 0.0124,0 0.0427,-0.0055 0.0661,-0.0055 0.0469,0 0.11163,-0.05236 0.0813,-0.155718 -0.0138,-0.04823 -0.051,-0.07993 -0.0951,-0.06615 -0.0317,0.0083 -0.0386,0.0083 -0.0841,0.0248 -0.0358,0.0124 -0.0469,0.03996 -0.051,0.07717 -0.007,-0.01654 -0.0193,-0.06339 -0.0262,-0.07579 -0.007,-0.01378 -0.011,-0.02205 -0.0234,-0.05374 -0.004,-0.0096 -0.004,-0.0096 -0.01,-0.02343 -0.022,-0.05099 0.0138,-0.09508 0.0579,-0.103353 0.0372,-0.0083 0.0965,-0.02343 0.13367,-0.03445 0.073,-0.02067 0.0965,-0.04961 0.11162,-0.08819 0.0165,-0.03996 0.0262,-0.0565 0.0937,-0.0565 0.0207,0 0.0978,0.0014 0.1323,0.0014 0.10197,0 0.21773,-0.08268 0.17914,-0.172254 0.0717,0.01378 0.1006,0.126779 0.0827,0.172254 0.0331,0 0.1447,-0.02205 0.1695,-0.04272 0,0.07717 -0.0606,0.170877 -0.10335,0.195681 0.0551,0.0055 0.15021,-0.0028 0.17914,-0.02756 -0.0179,0.05788 -0.0799,0.181901 -0.11851,0.201194 0.0951,0.03169 0.1571,0.08268 0.19982,0.201193 -0.0717,-0.02894 -0.11438,0.0069 -0.17777,-0.0028 0.12954,0.151585 0.17777,0.383095 0.21498,0.440973 -0.0345,-0.01929 -0.10473,-0.05788 -0.1571,-0.07855 0.0537,0.126779 -0.0262,0.250802 -0.0138,0.318326 -0.0413,-0.02343 -0.0937,-0.05236 -0.11162,-0.08544 -0.0221,0.05099 -0.0662,0.150206 -0.0482,0.278363 -0.0331,-0.03445 -0.091,-0.06201 -0.11576,-0.0813 -0.0482,0.07028 -0.0785,0.114377 -0.0785,0.2949 0,0.245291 0.11438,0.479558 0.16537,0.573264 0.0758,0.141938 0.0937,0.263206 0.10611,0.311437 0.0248,0.09646 0.0937,0.158474 0.18465,0.158474 0.0868,0 0.16124,-0.07993 0.16124,-0.177767 0,-0.177766 -0.21636,-0.290765 -0.21636,-0.602202 0,-0.205328 0.1571,-0.307303 0.16261,-0.438216 0.003,-0.115756 -0.10335,-0.0441 -0.1819,-0.09509 0.10198,-0.02067 0.16123,-0.132292 0.2508,-0.128157 0.0799,0.0055 0.0978,0.04685 0.10336,0.08819 0.006,0.05512 -0.0317,0.119889 -0.0427,0.143316 0.0882,-0.07579 0.12678,-0.192925 0.12678,-0.250803 0,-0.08819 -0.12265,-0.186035 -0.091,-0.354156 0.004,-0.02205 0.004,-0.01929 0.01,-0.03169 0.0358,0.188791 0.30455,0.237022 0.30455,0.424435 0,0.176389 -0.15159,0.143316 -0.2384,0.264583 0.0951,-0.03858 0.20257,-0.01929 0.20257,0.08682 z m -1.80523,-1.289843 c -0.0248,0.08819 -0.0234,0.202571 0.1006,0.202571 0.0965,0 0.26596,-0.08268 0.30179,-0.09922 l 0.0138,0.03169 c -0.0276,0.0124 -0.24805,0.188791 -0.42581,0.191548 -0.0992,0.0014 -0.13367,-0.05926 -0.13367,-0.117134 0,-0.09095 0.0703,-0.122645 0.14331,-0.209462 z m -3.14881,1.573719 c 0,0.09233 -0.14056,0.146072 -0.16812,0.187414 -0.0152,0.02067 -0.0262,0.03307 -0.0317,0.05512 -0.0179,-0.05926 0.0152,-0.107487 0.0152,-0.150206 0,-0.04823 -0.0344,-0.07166 -0.0841,-0.07166 -0.073,0 -0.27009,0.177767 -0.15158,0.464399 -0.007,-0.101975 0.0303,-0.169499 0.0469,-0.187413 0.0165,-0.01929 0.0331,-0.0565 0.0289,-0.08544 0.0386,0.07028 0.0469,0.101975 0.0469,0.158475 0,0.121267 -0.0882,0.14745 -0.0469,0.237022 0.007,0.0248 0.0152,0.04547 0.0289,0.07717 0,-0.04272 0.007,-0.07993 0.0152,-0.110243 0.007,-0.02894 0.0537,-0.08544 0.0593,-0.108865 0.006,-0.02205 0.007,-0.04547 10e-4,-0.07304 0.04,0.04961 0.0661,0.09233 0.0661,0.170877 0,0.09095 -0.0413,0.144694 -0.0537,0.170877 -0.01,0.02618 -0.0234,0.05236 -0.0289,0.09646 -0.0248,0.202572 -0.1254,0.297656 -0.25631,0.297656 -0.0827,0 -0.1447,-0.0124 -0.19706,-0.04685 0,0.260449 -0.29628,0.239779 -0.29628,0.410655 0,0.04685 0.0317,0.101975 0.0648,0.135048 0.0303,0.03169 0.15158,0.07579 0.19568,0.13367 -0.0648,0.0041 -0.13505,0.02618 -0.17088,0.07028 0.10611,0.05237 0.10335,0.112999 0.11713,0.192925 -0.10473,-0.05099 -0.15296,-0.02067 -0.17914,0.0069 -0.0331,0.03445 -0.0165,0.07855 -0.0537,0.130914 -0.0165,-0.04134 -0.0441,-0.07579 -0.0896,-0.07579 -0.0455,0 -0.1378,0.0813 -0.13918,0.107487 -0.003,0.07028 -0.0372,0.09922 -0.1006,0.106109 -0.0482,0.05236 -0.0372,0.07717 -0.0344,0.125401 -0.0427,-0.03858 -0.0482,-0.06477 -0.0331,-0.136426 -0.0482,-0.01929 -0.0427,-0.05925 -0.0276,-0.09508 l -0.0179,-0.0124 c -0.0262,0.02343 -0.0524,0.0565 -0.11713,0.02618 -0.0248,0.01103 -0.0565,0.04823 -0.062,0.09233 -0.0165,-0.106109 0.0179,-0.144694 0.0358,-0.159852 -0.011,-0.0248 0.004,-0.07442 0.0482,-0.09371 0,-0.01102 -0.004,-0.01654 -0.006,-0.02205 -0.0358,0 -0.0662,-0.01378 -0.0786,-0.03721 -0.0344,-0.0069 -0.0813,0.03445 -0.0909,0.05926 0,-0.05926 0.0482,-0.121267 0.0841,-0.135048 0.04,-0.07993 0.11713,-0.09508 0.16261,-0.04823 0.0262,0.02618 0.0882,0.05374 0.1502,0.05374 0.062,0 0.11852,-0.05237 0.13367,-0.07304 0.0152,-0.02067 0.0165,-0.0248 0.0248,-0.04134 0.0138,-0.03032 0.04,-0.06615 -0.0248,-0.14745 -0.0496,-0.06339 -0.17639,-0.187413 -0.17914,-0.275608 -0.003,-0.144693 0.0634,-0.228754 0.12953,-0.286631 -0.0234,0 -0.0165,0 -0.0524,0 -0.0923,0 -0.1006,-0.05788 -0.1943,-0.05788 -0.0689,0 -0.11025,0.0689 -0.11025,0.129536 0,0.05925 0.011,0.07166 0.0317,0.110243 0.0289,0.05374 0.0386,0.08406 0.0317,0.137803 -0.0551,-0.04961 -0.13229,-0.07441 -0.1943,-0.01929 -0.0234,0.0689 -0.0386,0.09646 -0.0841,0.129536 -0.003,-0.05788 -0.12127,-0.150206 -0.22738,-0.05099 -0.011,0.02343 -0.0193,0.07855 -0.0937,0.07855 -0.0441,0 -0.04,-0.0096 -0.0579,-0.01791 -0.0303,0.02618 -0.0565,0.0565 -0.0648,0.09371 -0.0152,-0.05788 0.004,-0.107487 0.0248,-0.130914 -0.007,-0.0248 -0.006,-0.08544 0.0262,-0.103353 -0.01,-0.0096 -0.006,-0.0041 -0.0138,-0.01929 -0.0469,0.03996 -0.11851,0.0441 -0.1502,0 -0.0276,0.0055 -0.0524,0.0248 -0.0813,0.0813 -0.007,-0.05788 0.0331,-0.124023 0.0606,-0.143316 0,-0.04547 0.0606,-0.08268 0.12402,-0.07028 0.004,-0.0069 -0.001,-0.0124 0.006,-0.02205 0.007,-0.0083 -0.003,-0.0041 -0.003,-0.0041 -0.0179,-0.0096 -0.0772,-0.0124 -0.073,-0.08682 -0.0358,-0.01378 -0.0703,0.0041 -0.0951,0.0248 0.0234,-0.06339 0.0772,-0.08268 0.11852,-0.08682 0.0138,-0.02756 0.0606,-0.03032 0.0827,-0.03032 0.0441,0 0.073,0.01929 0.0799,0.04685 0.0441,0.07855 0.14332,0.103353 0.24116,0.103353 0.0496,0 0.0896,-0.03721 0.0896,-0.09233 0,-0.0565 -0.0951,-0.220486 -0.0951,-0.294901 0,-0.07579 0.13505,-0.219108 0.22462,-0.219108 0.27423,0 0.33762,0.114378 0.39963,0.114378 0.0854,0 0.0978,-0.01791 0.11162,-0.03169 -0.12954,-0.158474 -0.21222,-0.155718 -0.33624,-0.239779 -0.062,-0.04272 -0.0937,-0.114377 -0.10198,-0.181901 -0.0772,0.01791 -0.15158,0.11989 -0.18741,0.183279 -0.0165,-0.03032 -0.0427,-0.05099 -0.0744,-0.05099 -0.0606,0 -0.10473,0.07993 -0.13367,0.14745 -0.0179,-0.07717 -0.0634,-0.148828 -0.15297,-0.148828 -0.0496,0 -0.1061,0.02067 -0.11988,0.05374 -0.0152,0.03169 -0.062,0.07993 -0.13505,0.06063 -0.0262,0.01929 -0.051,0.02618 -0.0689,0.107487 -0.0248,-0.101975 0,-0.119889 0.0138,-0.146072 -0.0138,-0.06752 0.0138,-0.09095 0.0262,-0.107487 l -0.007,-0.01791 c -0.04,0.0124 -0.0992,0.0083 -0.11576,-0.02618 -0.0455,-0.0014 -0.0579,0.0041 -0.0965,0.06201 0.008,-0.06615 0.0441,-0.118511 0.0854,-0.135048 0.0152,-0.03721 0.0675,-0.05374 0.11024,-0.05374 0.003,-0.0096 0.007,-0.01102 0.008,-0.01929 -0.0276,-0.01516 -0.0496,-0.04961 -0.0455,-0.08957 -0.0331,-0.03996 -0.0703,-0.01516 -0.10059,-0.0041 0.0537,-0.05512 0.11713,-0.07717 0.15985,-0.05237 0.0923,-0.03032 0.1254,0.0124 0.13367,0.06477 0.011,0.05926 0.10335,0.06752 0.19981,0.06752 0.20947,0 0.54433,-0.195681 0.51952,-0.350022 -0.0496,-0.01378 -0.0551,-0.01102 -0.0937,-0.01102 -0.113,0 -0.25356,0.14056 -0.3638,0.141938 0.0551,-0.06201 0.0207,-0.125402 0.051,-0.172255 -0.0593,-0.0014 -0.12126,0.03721 -0.2384,0.02618 0.04,-0.02343 0.0661,-0.104731 0.0661,-0.133669 0,-0.02894 0,-0.08544 -0.12402,-0.08544 -0.0124,0.0028 -0.0469,0.01378 -0.0717,0.01378 -0.0289,0 -0.11162,-0.0069 -0.11162,-0.07166 -0.0413,-0.0096 -0.0717,0.0014 -0.11576,0.03445 0.01,-0.04547 0.0937,-0.101975 0.11989,-0.106109 0.0165,-0.03445 0.051,-0.04961 0.0689,-0.04823 0.003,-0.01792 0.003,-0.0014 0.004,-0.02343 -0.0427,-0.0055 -0.0965,-0.02067 -0.0951,-0.09095 -0.0303,-0.02756 -0.0496,-0.03307 -0.11713,-0.01516 0.0841,-0.06339 0.11438,-0.05374 0.14056,-0.0441 0.062,-0.04547 0.11162,-0.02067 0.12953,0 0.007,-0.0096 0.0124,-0.01103 0.0165,-0.01791 -0.0138,-0.04547 -0.006,-0.08819 0.0138,-0.107487 -0.001,-0.04961 -0.0248,-0.06339 -0.0689,-0.07304 0.0923,0.0014 0.12953,0.02205 0.15985,0.0565 0.0524,0.0069 0.0854,0.05374 0.0868,0.08682 0.001,0.08819 -0.091,0.14745 0.0868,0.239778 0.0565,0.02756 0.13367,0.0565 0.21222,0.07993 0.0785,0.02205 0.17639,0.05788 0.21497,0.05788 -0.0303,-0.04823 -0.0165,-0.09508 -0.0675,-0.144694 0.0565,-0.0028 0.12678,0.01653 0.17777,0.02756 -0.011,-0.07028 0.007,-0.07028 -0.0386,-0.112999 0.0386,0.0055 0.0937,0.0069 0.1254,0.0096 0.20258,0.02205 0.20533,-0.07855 0.24392,-0.206705 -0.0689,0.0041 -0.18466,0.02205 -0.2949,0.09508 0.01,-0.03858 -10e-4,-0.0689 -10e-4,-0.100597 0,-0.06063 0.0469,-0.07304 0.0703,-0.07304 0.011,0 0.0413,-0.0055 0.0648,-0.0055 0.0441,0 0.10611,-0.04961 0.0772,-0.148829 -0.0138,-0.04685 -0.0496,-0.07579 -0.091,-0.06339 -0.0303,0.0083 -0.0372,0.0069 -0.0827,0.02343 -0.0331,0.0124 -0.0441,0.03858 -0.0469,0.07579 -0.007,-0.01654 -0.0193,-0.06201 -0.0262,-0.07304 -0.006,-0.01378 -0.011,-0.02205 -0.0234,-0.05237 -0.003,-0.0096 -0.003,-0.0096 -0.008,-0.02205 -0.0207,-0.04961 0.0124,-0.09233 0.0551,-0.100597 0.0358,-0.0069 0.0937,-0.02205 0.12816,-0.03169 0.0717,-0.02205 0.0923,-0.04823 0.10749,-0.08544 0.0165,-0.03859 0.0248,-0.05512 0.0896,-0.05512 0.0207,0 0.0937,0.0028 0.12816,0.0028 0.0978,0 0.20808,-0.07993 0.17225,-0.165365 0.0675,0.0124 0.0951,0.121267 0.0786,0.165365 0.0317,0 0.13781,-0.02067 0.16261,-0.04134 -0.001,0.07304 -0.0579,0.165365 -0.0992,0.187413 0.0524,0.0055 0.1447,-0.0028 0.17226,-0.02618 -0.0165,0.05512 -0.0772,0.175011 -0.11438,0.192926 0.091,0.03169 0.15158,0.07993 0.19155,0.194303 -0.0689,-0.02894 -0.11025,0.0055 -0.17088,-0.0041 0.1254,0.146073 0.17225,0.367937 0.2067,0.423058 -0.0331,-0.01791 -0.10059,-0.05512 -0.15158,-0.07441 0.0524,0.121267 -0.0234,0.241157 -0.0124,0.304547 -0.04,-0.02205 -0.0896,-0.04961 -0.10611,-0.08268 -0.0207,0.04961 -0.0648,0.144694 -0.0469,0.268718 -0.0331,-0.03445 -0.0868,-0.06063 -0.11024,-0.07855 -0.0468,0.06753 -0.0758,0.110243 -0.0758,0.282498 0,0.235645 0.11024,0.461643 0.1571,0.549837 0.073,0.137804 0.0923,0.25356 0.10335,0.300413 0.0234,0.09233 0.0882,0.151584 0.17639,0.151584 0.0841,0 0.15434,-0.07717 0.15434,-0.170877 0,-0.170876 -0.20671,-0.278363 -0.20671,-0.577398 0,-0.197059 0.15021,-0.2949 0.15572,-0.420301 0.003,-0.111621 -0.0978,-0.04272 -0.17501,-0.09233 0.0978,-0.01929 0.15572,-0.12678 0.24116,-0.121267 0.0772,0.0041 0.0951,0.0441 0.0978,0.08406 0.007,0.05236 -0.0289,0.114377 -0.04,0.136426 0.0841,-0.07304 0.12265,-0.184657 0.12265,-0.241157 0,-0.08406 -0.11851,-0.177767 -0.0882,-0.338997 0.004,-0.02067 0.004,-0.01791 0.01,-0.03169 0.0345,0.181902 0.29214,0.228755 0.29214,0.407899 0,0.169499 -0.14607,0.137805 -0.23013,0.254938 0.0923,-0.03721 0.19568,-0.01791 0.19568,0.08268 z m -1.7322,-1.237478 c -0.0234,0.08544 -0.0221,0.195682 0.0965,0.195682 0.0937,0 0.25493,-0.07993 0.28938,-0.09646 l 0.0138,0.03032 c -0.0262,0.01103 -0.2384,0.181901 -0.40927,0.183279 -0.0951,0.0014 -0.12816,-0.0565 -0.12816,-0.111621 0,-0.08682 0.0675,-0.117133 0.1378,-0.201193 z m 7.40007,-1.604036 c -3.04822,0.02618 -5.91041,0.323839 -8.04085,0.803396 -0.84474,0.190169 -1.15756,0.802018 -1.24989,1.289844 -0.25769,1.38355 -0.59255,4.117578 -0.48644,6.930153 0.51814,-0.493337 5.29718,-5.14146 5.29718,-5.14146 l 4.96645,4.958181 c 0,-3.403754 -0.22325,-6.66557 -0.48645,-8.840114"
         style="fill:#211e1e;fill-opacity:1;fill-rule:nonzero;stroke:none;stroke-width:0.352778" />
      <path
         id="path3868"
         d="m 109.54251,74.955632 c -0.0138,0.02756 -0.004,0.07304 0.01,0.09509 0.0234,-0.0028 0.0786,-0.01791 0.10887,-0.03721 0.0345,-0.02205 0.0441,-0.03721 0.0799,-0.06339 -0.0344,-0.0028 -0.19292,-0.0041 -0.19844,0.0055"
         style="fill:#611c63;fill-opacity:1;fill-rule:nonzero;stroke:none;stroke-width:0.352778" />
      <path
         id="path3870"
         d="m 114.44557,74.611123 c -0.0152,0.02756 -0.006,0.07579 0.01,0.09784 0.0248,-0.0014 0.0827,-0.01791 0.113,-0.03858 0.0358,-0.02067 0.0455,-0.03858 0.0841,-0.06615 -0.0358,-0.0028 -0.20119,-0.0028 -0.20671,0.0069"
         style="fill:#611c63;fill-opacity:1;fill-rule:nonzero;stroke:none;stroke-width:0.352778" />
    </g>
  </g>
</svg>
